<?xml version="1.0" encoding="UTF-8" standalone="no"?>
<!-- Created with Inkscape (http://www.inkscape.org/) -->

<svg
   xmlns:dc="http://purl.org/dc/elements/1.1/"
   xmlns:cc="http://creativecommons.org/ns#"
   xmlns:rdf="http://www.w3.org/1999/02/22-rdf-syntax-ns#"
   xmlns:svg="http://www.w3.org/2000/svg"
   xmlns="http://www.w3.org/2000/svg"
   xmlns:sodipodi="http://sodipodi.sourceforge.net/DTD/sodipodi-0.dtd"
   xmlns:inkscape="http://www.inkscape.org/namespaces/inkscape"
   width="439.4455"
   height="110.04441"
   id="svg2"
   version="1.1"
   inkscape:version="0.48.4 r9939"
   sodipodi:docname="logo_rafaela_b_redondo.svg"
   inkscape:export-filename="/home/manuq/prog/PyConAr2013/dise単o/logo.png"
   inkscape:export-xdpi="96"
   inkscape:export-ydpi="96">
  <defs
     id="defs4" />
  <sodipodi:namedview
     id="base"
     pagecolor="#ffffff"
     bordercolor="#666666"
     borderopacity="1.0"
     inkscape:pageopacity="1"
     inkscape:pageshadow="2"
     inkscape:zoom="1.7031798"
     inkscape:cx="215.36093"
     inkscape:cy="38.366492"
     inkscape:document-units="px"
     inkscape:current-layer="layer1"
     showgrid="false"
     inkscape:window-width="1440"
     inkscape:window-height="863"
     inkscape:window-x="0"
     inkscape:window-y="0"
     inkscape:window-maximized="1"
     showguides="true"
     inkscape:guide-bbox="true"
     fit-margin-top="0"
     fit-margin-left="0"
     fit-margin-right="0"
     fit-margin-bottom="0"
     inkscape:snap-bbox="true" />
  <metadata
     id="metadata7">
    <rdf:RDF>
      <cc:Work
         rdf:about="">
        <dc:format>image/svg+xml</dc:format>
        <dc:type
           rdf:resource="http://purl.org/dc/dcmitype/StillImage" />
        <dc:title></dc:title>
      </cc:Work>
    </rdf:RDF>
  </metadata>
  <g
     inkscape:label="Capa 1"
     inkscape:groupmode="layer"
     id="layer1"
     transform="translate(308.96507,-247.07397)">
    <path
       sodipodi:type="arc"
       style="fill:#000000;stroke:#000000"
       id="path3001-1"
       sodipodi:cx="186.70958"
       sodipodi:cy="46.602474"
       sodipodi:rx="56.365158"
       sodipodi:ry="54.704483"
       d="m 243.07474,46.602474 a 56.365158,54.704483 0 1 1 -112.73032,0 56.365158,54.704483 0 1 1 112.73032,0 z"
       transform="matrix(0.89002917,0,0,0.99697973,-90.777996,255.61328)" />
    <path
       sodipodi:type="arc"
       style="fill:#000000;stroke:#000000"
       id="path3001"
       sodipodi:cx="186.70958"
       sodipodi:cy="46.602474"
       sodipodi:rx="56.365158"
       sodipodi:ry="54.704483"
       d="m 243.07474,46.602474 a 56.365158,54.704483 0 1 1 -112.73032,0 56.365158,54.704483 0 1 1 112.73032,0 z"
       transform="matrix(0.9670187,0,0,0.9961445,-430.78163,255.70676)" />
    <rect
       style="color:#000000;fill:#000000;fill-opacity:1;fill-rule:nonzero;stroke:none;stroke-width:10;marker:none;visibility:visible;display:inline;overflow:visible;enable-background:accumulate"
       id="rect4244"
       width="330.76053"
       height="109.8587"
       x="-254.9471"
       y="247.18878"
       ry="0" />
    <path
       transform="matrix(0.70505051,0,0,0.70505051,-40.500573,-166.46313)"
       sodipodi:open="true"
       sodipodi:end="6.2621117"
       sodipodi:start="0"
       d="m -229.45958,664.59949 c 0,36.64928 -29.71011,66.35939 -66.35939,66.35939 -36.64928,0 -66.35939,-29.71011 -66.35939,-66.35939 0,-36.64928 29.71011,-66.35939 66.35939,-66.35939 36.10434,0 65.58386,28.86473 66.34466,64.96106"
       sodipodi:ry="66.35939"
       sodipodi:rx="66.35939"
       sodipodi:cy="664.59949"
       sodipodi:cx="-295.81897"
       id="path3244"
       style="fill:#47a3da;fill-opacity:1;stroke:none"
       sodipodi:type="arc" />
    <path
       inkscape:connector-curvature="0"
       id="path3246"
       d="m -269.03404,327.39197 c -6.64594,0 -12.17403,3.16461 -13.5,7.40625 4.70606,4.81853 10.43124,8.62548 16.84375,11.0625 6.01845,-1.01484 10.46875,-4.69584 10.46875,-9.09375 l 0,-0.21875 c -0.15848,-5.10238 -6.29154,-9.15625 -13.8125,-9.15625 z"
       style="fill:#ffffff;fill-opacity:1;stroke:none" />
    <path
       sodipodi:type="arc"
       style="fill:#ffffff;fill-opacity:1;stroke:none"
       id="path3248"
       sodipodi:cx="193.97299"
       sodipodi:cy="444.27438"
       sodipodi:rx="12.679736"
       sodipodi:ry="10.251702"
       d="m 206.65273,444.27438 c 0,5.66186 -5.67691,10.25171 -12.67974,10.25171 -7.00282,0 -12.67973,-4.58985 -12.67973,-10.25171 0,-5.66186 5.67691,-10.2517 12.67973,-10.2517 6.8987,0 12.53155,4.45924 12.67692,10.03568"
       sodipodi:start="0"
       sodipodi:end="6.2621117"
       sodipodi:open="true"
       transform="matrix(1.0901991,0,0,0.9149885,-444.44498,-91.534061)" />
    <path
       transform="matrix(1.0901991,0,0,0.9149885,-468.9609,-113.3213)"
       sodipodi:open="true"
       sodipodi:end="6.2621117"
       sodipodi:start="0"
       d="m 206.65273,444.27438 c 0,5.66186 -5.67691,10.25171 -12.67974,10.25171 -7.00282,0 -12.67973,-4.58985 -12.67973,-10.25171 0,-5.66186 5.67691,-10.2517 12.67973,-10.2517 6.8987,0 12.53155,4.45924 12.67692,10.03568"
       sodipodi:ry="10.251702"
       sodipodi:rx="12.679736"
       sodipodi:cy="444.27438"
       sodipodi:cx="193.97299"
       id="path3250"
       style="fill:#ffffff;fill-opacity:1;stroke:none"
       sodipodi:type="arc" />
    <path
       inkscape:connector-curvature="0"
       id="path3252"
       d="m -224.56529,262.26697 c -6.12315,0.96417 -10.6875,4.6767 -10.6875,9.125 0,5.18054 6.17803,9.375 13.8125,9.375 4.83222,0 9.0913,-1.67 11.5625,-4.21875 -3.77953,-5.78346 -8.80352,-10.65691 -14.6875,-14.28125 z"
       style="fill:#ffffff;fill-opacity:1;stroke:none" />
    <path
       style="fill:none;stroke:#ffffff;stroke-width:3.1609621;stroke-linecap:butt;stroke-linejoin:miter;stroke-miterlimit:4;stroke-opacity:1;stroke-dasharray:none"
       d="m -221.22465,271.80526 -36.21997,21.48081 24.92966,21.51631 -37.17447,22.35062"
       id="path3254"
       inkscape:connector-curvature="0"
       sodipodi:nodetypes="cccc" />
    <text
       xml:space="preserve"
       style="font-size:40px;font-style:normal;font-weight:normal;line-height:100%;letter-spacing:0px;word-spacing:0px;fill:#dfb129;fill-opacity:1;stroke:none;font-family:Sans"
       x="-46.989666"
       y="296.53729"
       id="text3395"
       sodipodi:linespacing="100%"
       inkscape:export-filename="/home/fisa/devel/PyConAr2014/dise単o/logo_rafaela.png"
       inkscape:export-xdpi="90"
       inkscape:export-ydpi="90"><tspan
         sodipodi:role="line"
         id="tspan3397"
         x="-46.989666"
         y="296.53729"
         style="font-size:36px;font-style:normal;font-variant:normal;font-weight:normal;font-stretch:normal;line-height:100%;fill:#dfb129;font-family:Nova Slim;-inkscape-font-specification:Nova Slim">2014</tspan><tspan
         sodipodi:role="line"
         x="-46.989666"
         y="332.53729"
         id="tspan3399"
         style="font-size:36px;font-style:normal;font-variant:normal;font-weight:normal;font-stretch:normal;line-height:100%;fill:#dfb129;font-family:Nova Slim;-inkscape-font-specification:Nova Slim">RAFAELA</tspan></text>
    <g
       style="font-size:36.50469589px;font-style:normal;font-variant:normal;font-weight:bold;font-stretch:normal;text-align:end;line-height:100%;letter-spacing:0px;word-spacing:0px;text-anchor:end;color:#000000;fill:#ffffff;fill-opacity:1;fill-rule:nonzero;stroke:none;marker:none;visibility:visible;display:inline;overflow:visible;enable-background:accumulate;font-family:Nova Flat;-inkscape-font-specification:Nova Flat Bold"
       id="text3176"
       inkscape:export-filename="/home/fisa/devel/PyConAr2014/dise単o/logo_rafaela.png"
       inkscape:export-xdpi="90"
       inkscape:export-ydpi="90"
       transform="translate(258.23487,408.52591)">
      <path
         d="m -435.91884,-111.04471 0,-26.73684 1.8894,-0.89122 6.75551,0 c 1.79432,2e-5 3.44606,0.31492 4.95523,0.9447 2.69743,1.11703 4.04615,2.76283 4.04617,4.9374 l 0,6.06035 c -2e-5,2.17461 -1.34874,3.82041 -4.04617,4.9374 -1.50917,0.62981 -3.16091,0.94471 -4.95523,0.9447 l -5.08,0 0,8.1993 -3.38667,1.60421 -0.17824,0 m 3.56491,-13.01193 5.08,0 c 1.18829,2e-5 2.28153,-0.19605 3.27972,-0.58821 1.43783,-0.57037 2.15675,-1.26553 2.15677,-2.08547 l 0,-6.06035 c -2e-5,-0.83179 -0.71894,-1.52695 -2.15677,-2.08547 -0.99819,-0.39212 -2.09143,-0.58819 -3.27972,-0.58821 l -5.08,0 0,11.40771"
         style="font-weight:normal;fill:#ffffff;marker:none;-inkscape-font-specification:Nova Flat"
         id="path4859"
         inkscape:connector-curvature="0" />
      <path
         d="m -413.4599,-130.47348 3.38667,-1.60421 0.17824,0 0,15.68561 c 0,0.59416 0.36837,1.03977 1.10513,1.33685 0.74862,0.29708 1.65767,0.44561 2.72715,0.44561 1.06947,0 1.97258,-0.14853 2.70934,-0.44561 0.74861,-0.29708 1.12293,-0.74269 1.12294,-1.33685 l 0,-14.0814 3.38667,-1.60421 0.17824,0 0,23.61754 c -10e-6,1.59233 -1.11108,2.81628 -3.33319,3.67186 -1.2002,0.46343 -2.55486,0.69515 -4.064,0.69516 l -5.54343,0 0,-0.17825 1.42596,-3.03017 4.11747,0 c 1.06947,-10e-6 1.97258,-0.14854 2.70934,-0.44561 0.74861,-0.29708 1.12293,-0.7427 1.12294,-1.33685 l 0,-2.92322 c -1.14078,0.40402 -2.41821,0.60603 -3.83228,0.60603 -1.50915,0 -2.86382,-0.23172 -4.064,-0.69516 -2.22213,-0.85557 -3.33319,-2.07953 -3.33319,-3.67186 l 0,-14.70526"
         style="font-weight:normal;fill:#ffffff;marker:none;-inkscape-font-specification:Nova Flat"
         id="path4861"
         inkscape:connector-curvature="0" />
      <path
         d="m -373.53289,-121.5612 0,4.2779 c -2e-5,2.1746 -1.34874,3.8204 -4.04617,4.9374 -1.50916,0.6298 -3.1609,0.9447 -4.95523,0.9447 -1.79435,0 -3.44609,-0.3149 -4.95523,-0.9447 -2.69745,-1.117 -4.04617,-2.7628 -4.04617,-4.9374 l 0,-15.86386 c 0,-2.17457 1.34872,-3.82037 4.04617,-4.9374 1.50914,-0.62978 3.16088,-0.94468 4.95523,-0.9447 1.79433,2e-5 3.44607,0.31492 4.95523,0.9447 2.69743,1.11703 4.04615,2.76283 4.04617,4.9374 l 0,2.67368 -3.38666,1.60421 -0.17825,0 0,-4.27789 c -2e-5,-0.80803 -0.71894,-1.50318 -2.15677,-2.08547 -0.99819,-0.39212 -2.09143,-0.58819 -3.27972,-0.58821 -1.18831,2e-5 -2.28155,0.19609 -3.27972,0.58821 -1.43785,0.5704 -2.15678,1.26556 -2.15677,2.08547 l 0,15.86386 c -1e-5,0.80805 0.71892,1.5032 2.15677,2.08547 0.99817,0.39214 2.09141,0.58821 3.27972,0.58821 1.18829,0 2.28153,-0.19607 3.27972,-0.58821 1.43783,-0.57038 2.15675,-1.26554 2.15677,-2.08547 l 0,-2.67369 3.38667,-1.60421 0.17824,0"
         style="font-weight:normal;fill:#ffffff;marker:none;-inkscape-font-specification:Nova Flat"
         id="path4863"
         inkscape:connector-curvature="0" />
      <path
         d="m -363.69373,-116.39208 c -10e-6,0.59416 0.36837,1.03977 1.10512,1.33685 0.74863,0.29708 1.65768,0.44561 2.72716,0.44561 1.06946,0 1.97257,-0.14853 2.70933,-0.44561 0.74862,-0.29708 1.12294,-0.74269 1.12295,-1.33685 l 0,-10.33824 c -10e-6,-0.59414 -0.37433,-1.03975 -1.12295,-1.33684 -0.73676,-0.29706 -1.63987,-0.4456 -2.70933,-0.44562 -1.06948,2e-5 -1.97853,0.14856 -2.72716,0.44562 -0.73675,0.29709 -1.10513,0.7427 -1.10512,1.33684 l 0,10.33824 m -3.56491,0.62386 0,-11.58596 c 0,-1.56854 1.11106,-2.79249 3.33319,-3.67186 1.20018,-0.46342 2.55485,-0.69514 4.064,-0.69516 1.50913,2e-5 2.8638,0.23174 4.064,0.69516 2.22211,0.87937 3.33317,2.10332 3.33319,3.67186 l 0,11.58596 c -2e-5,1.56857 -1.11108,2.79252 -3.33319,3.67186 -1.2002,0.46344 -2.55487,0.69516 -4.064,0.69516 -1.50915,0 -2.86382,-0.23172 -4.064,-0.69516 -2.22213,-0.87934 -3.33319,-2.10329 -3.33319,-3.67186"
         style="font-weight:normal;fill:#ffffff;marker:none;-inkscape-font-specification:Nova Flat"
         id="path4865"
         inkscape:connector-curvature="0" />
      <path
         d="m -347.15254,-111.04471 0,-16.30947 c 0,-1.59231 1.11106,-2.81626 3.33319,-3.67186 1.20018,-0.46342 2.55485,-0.69514 4.064,-0.69516 1.50914,2e-5 2.8638,0.23174 4.064,0.69516 2.22211,0.8556 3.33318,2.07955 3.33319,3.67186 l 0,14.70526 -3.38666,1.60421 -0.17825,0 0,-15.68561 c -1e-5,-0.59414 -0.37433,-1.03975 -1.12294,-1.33684 -0.73677,-0.29706 -1.63988,-0.4456 -2.70934,-0.44562 -1.06948,2e-5 -1.97853,0.14856 -2.72715,0.44562 -0.73676,0.29709 -1.10513,0.7427 -1.10513,1.33684 l 0,14.0814 -3.38666,1.60421 -0.17825,0"
         style="font-weight:normal;fill:#ffffff;marker:none;-inkscape-font-specification:Nova Flat"
         id="path4867"
         inkscape:connector-curvature="0" />
      <path
         d="m -364.15717,-74.540012 0,-22.102453 c 0,-2.174572 1.34872,-3.820375 4.04617,-4.937405 1.50914,-0.62977 3.16088,-0.94467 4.95523,-0.9447 1.79433,3e-5 3.44607,0.31493 4.95523,0.9447 2.69743,1.11703 4.04615,2.762833 4.04617,4.937405 -2e-5,2.2e-5 -2e-5,6.832762 0,20.498243 l -3.38666,1.60421 -0.17825,0 0,-12.548489 -10.87298,0 0,10.944279 -3.38666,1.60421 -0.17825,0 m 3.56491,-15.792559 10.87298,0 0,-6.309894 c -2e-5,-0.819907 -0.71894,-1.515064 -2.15677,-2.085473 -0.99819,-0.392117 -2.09143,-0.588187 -3.27972,-0.588211 -1.18831,2.4e-5 -2.28155,0.196094 -3.27972,0.588211 -1.43785,0.570409 -2.15678,1.265566 -2.15677,2.085473 l 0,6.309894"
         style="font-weight:normal;fill:#ffffff;marker:none;-inkscape-font-specification:Nova Flat"
         id="path4869"
         inkscape:connector-curvature="0" />
      <path
         d="m -339.88012,-74.540012 0,-16.309471 c -1e-5,-1.59231 1.11106,-2.816262 3.33319,-3.671859 1.20018,-0.463419 2.55484,-0.695138 4.064,-0.695158 l 2.40631,0 0,0.178245 -1.42596,3.030175 -0.98035,0 c -1.06948,1.7e-5 -1.97853,0.148555 -2.72716,0.445614 -0.73675,0.297092 -1.10513,0.742706 -1.10512,1.336842 l 0,14.081402 -3.38667,1.60421 -0.17824,0"
         style="font-weight:normal;fill:#ffffff;marker:none;-inkscape-font-specification:Nova Flat"
         id="path4871"
         inkscape:connector-curvature="0" />
    </g>
    <path
       sodipodi:nodetypes="cc"
       inkscape:connector-curvature="0"
       id="path3188"
       d="m -58.866635,271.21731 0,62.6065"
       style="fill:none;stroke:#47a3da;stroke-width:2.46406698;stroke-linecap:butt;stroke-linejoin:miter;stroke-miterlimit:4;stroke-opacity:1;stroke-dasharray:none"
       inkscape:export-filename="/home/fisa/devel/PyConAr2014/dise単o/logo_rafaela.png"
       inkscape:export-xdpi="90"
       inkscape:export-ydpi="90" />
  </g>
</svg>
