<svg id="Layer_1" data-name="Layer 1" xmlns="http://www.w3.org/2000/svg" xmlns:xlink="http://www.w3.org/1999/xlink" viewBox="0 0 193.12 224.38"><defs><style>.cls-1{fill:none;}.cls-2{clip-path:url(#clip-path);}.cls-3{fill:#eec74c;}.cls-4{fill:#fddb52;}.cls-5{fill:#405aa8;}.cls-6{fill:#242e64;}</style><clipPath id="clip-path" transform="translate(-187 -72.43)"><rect class="cls-1" x="188" y="56" width="202.33" height="240.82"/></clipPath></defs><title>Untitled-1</title><g class="cls-2"><path class="cls-3" d="M338,175.52c3.06-.58,6.28-1.33,8.58-3.54,3.61-3.47,5.77-8.59,9.89-11.33,0.87-.58,2.11-1,2.83-0.22a2.64,2.64,0,0,1,.54,1.26,25.85,25.85,0,0,1,.58,6.84,41.72,41.72,0,0,1,11.58-1.2c2,0.07,4.18.38,5.58,1.9a9.11,9.11,0,0,1,2,3,11.72,11.72,0,0,1,.4,5.16c-0.36,3-2.71,5.24-5.18,6.68-5.44,3.17-11.88,3.6-18.08,3.66a57.62,57.62,0,0,0-18.29,2.64c-0.64-4.07-.32-9.92-0.15-14" transform="translate(-187 -72.43)"/><path class="cls-4" d="M187.6,289.18c18.09-9.7,36.06-18.67,53.82-29L221.64,236.4a20.57,20.57,0,0,0-5.93,3.36c-8.94,7.21-17.27,15.79-28.13,19.54Z" transform="translate(-187 -72.43)"/><path class="cls-4" d="M267.85,237.15c8.57,8.45,17.13,16.91,25.89,25.16q8.67,8.16,17.58,16.06c7.49,6.63,15.19,13.18,24,17.9l-45.93.55-21.34-17.66c-7-5.81-14.14-11.74-19.1-19.38Z" transform="translate(-187 -72.43)"/><path class="cls-4" d="M187,198.35h0V175.68c3-.73,6.12.9,9.14,1.93,6,2.06,12.56,1.8,18.89,1s12.63-2,19-1.81l0.07,27c-15.66.77-32.1-.86-47.1-5.52" transform="translate(-187 -72.43)"/><path class="cls-5" d="M242.78,172.31c-4.76-.61-9.21,3.11-11.07,7.54s-1.73,9.42-1.57,14.22l0.34,10a31.88,31.88,0,0,1-.59,9.25c-0.83,3.13-2.58,5.91-4.21,8.71A48,48,0,0,0,220,235q-0.13.54-.23,1.09A20.86,20.86,0,0,0,221.06,249a21.13,21.13,0,0,0,4.65,6.17c7.74,7.33,20.1,9.81,29.55,4.88s14.3-15.57,16.44-26a76.88,76.88,0,0,1,1.73-7.67c1.59-5,4.67-9.45,6.43-14.41a29.59,29.59,0,0,0-1.26-22.56,17.37,17.37,0,0,0-3.76-5.31,23.12,23.12,0,0,0-6.48-3.79c-7.82-3.43-17.38-5.66-25.58-8" transform="translate(-187 -72.43)"/><path class="cls-6" d="M246,184l-7.51-.5s-2.57,20.24,42.43,24.68a32.93,32.93,0,0,0,.52-3.7,14.59,14.59,0,0,1,.29-2.41Z" transform="translate(-187 -72.43)"/><path class="cls-3" d="M240,176V159s-10.64-5.32-11.36-10.73,0.13-27.25.13-27.25,0.78-6.86,6.74-6.68,21.87,0,21.87,0,6.87,0.73,6.69,7.58,0,9.57,0,9.57,15.16,6.14,15.7,6.68,4.15,2.89,0,5.6l-4.15,2.71a1.85,1.85,0,0,0-.54,2.35c0.72,1.44,4.33,9-1.62,15.34s-11.26,7.15-11.26,7.15Z" transform="translate(-187 -72.43)"/><path class="cls-4" d="M237.69,180.61a8.5,8.5,0,0,1,2.43-6.74,13.62,13.62,0,0,1,5.91-2.72,44.36,44.36,0,0,1,13.62-.61c12.66,1,25.65,4.49,34.86,12.76a2,2,0,0,0,2.32.68c7-1.59,14-3.19,21-5.16,7.51-2.14,14.93-4.74,22.71-5.72l0.86,18.58-10,3.78c-4.31,1.62-8.62,3.24-13,4.55a98.11,98.11,0,0,1-65.89-3.94,32.85,32.85,0,0,1-8.65-5,18.41,18.41,0,0,1-6-10.42" transform="translate(-187 -72.43)"/><path class="cls-5" d="M247.37,89.22l-0.14,2.85q-14.48.44-29-.14c-3.24-.13-7-0.06-9,2.51a7.12,7.12,0,0,0-1.34,3c-1.51,8.1-1.15,16.55-1.5,24.69a9.39,9.39,0,0,0,1.85,6.61,9.08,9.08,0,0,0,5.28,2.5,32.25,32.25,0,0,0,11.38-.07,34.17,34.17,0,0,1,.14-9.4c0.42-3.24,1-6.66,3.62-8.62,3.16-2.37,7.42-2,11.38-2a102.49,102.49,0,0,1,11.42.44,33.09,33.09,0,0,0,8.17,0c2.65-.38,5.33-1.85,6.29-4.35a11,11,0,0,0,.51-3.68l0.44-18.88a22.69,22.69,0,0,0-.41-6.12,7.65,7.65,0,0,0-3.43-4.9,11.4,11.4,0,0,0-5.47-1l-19.21-.21c-2.26,0-4.64,0-6.61,1.1a8.69,8.69,0,0,0-3.9,6.19,39.18,39.18,0,0,0,.18,9.3Z" transform="translate(-187 -72.43)"/></g></svg>